<svg id="Camada_1" xmlns="http://www.w3.org/2000/svg"  viewBox="195 150 500 302">
    <defs>
        <style>
            .cls-1 {
                fill: #fff;
            }
        </style>
    </defs>
    <path class="cls-1"
        d="m266.34,239.54c-4.99-2.47-13.17-3.97-23.39-3.97s-18.44,1.5-23.43,4.01c-11.23,5.51-14.06,15.97-14.06,25.21v53.98c0,1.22,1.01,2.27,2.27,2.27h11.92c1.26,0,2.27-1.05,2.27-2.27v-55.56c.08-.77-.2-11.31,21.03-11.31s20.95,10.54,21.03,11.31v55.56c0,.16,0,.28.04.45.08.32.2.61.41.85.36.57,1.05.97,1.82.97h11.92c1.05,0,1.99-.81,2.23-1.82l.04-.45v-53.98c0-9.24-2.88-19.7-14.1-25.25Zm63.22-3.97c-13.41,0-21.03,3.32-28,9.89-5.35,5.19-8.11,11.47-8.11,18.68v27.76c0,9,2.63,16.13,7.78,21.28,6.28,6.28,16.37,9.48,30.03,9.48.2-.04.36-.04.57,0,12.69,0,22.66-2.47,29.71-7.42h.04c.2-.12.41-.24.57-.41.65-.69.85-1.74.36-2.67l-5.19-9.85c-.41-.77-1.18-1.22-1.99-1.22-1.22,0-4.22,1.79-9.44,3.48-3.57,1.16-8.19,1.82-13.98,1.74-8.88-.04-15.2-1.7-18.64-5.11-2.23-2.23-3.32-5.31-3.32-9.32v-7.74h54.27c.93,0,1.74-.57,2.11-1.38,0-.04,0-.08.04-.12.04-.32.08-.61.12-.93.24-2.27-.02-5.23-.02-9.08,0-24.24-12.51-37.08-36.91-37.08Zm-19.62,32.26v-2.59c0-5.81,6.7-13.88,20.38-13.88,20.52,0,19.9,13.88,19.9,13.88v2.6s-40.28,0-40.28,0Zm131.3,34.53c-.41-.77-1.18-1.2-1.99-1.22-.3,0-.8.16-.97.24-.16.08-.44.21-.61.3-.25.13-9.52,4.72-18.53,4.72-8.15,0-14.02-.81-17.39-2.39-4.01-1.99-6-5.11-6.24-9.73-.04-.2-.04-.36-.04-.53v-.16c-.04-.36-.04-.73-.04-1.05v-26.87c0-.32,0-.69.04-1.05-.04-.04-.04-.08,0-.12.12-4.98,2.11-8.23,6.28-10.29,3.36-1.58,9.24-2.39,17.39-2.39,5.59,0,10.25.93,13.94,2.76,1.5.77,5.3,2.84,5.3,2.84,0,0,1.05.65,1.62.65h.12c.89-.08,1.74-.69,2.07-1.66l3.46-11.23c.24-.81.04-1.6-.49-2.17l-.04-.04c-.24-.16-.45-.38-.69-.5-5.59-3.89-13.33-6.24-23.18-6.73-.24,0-.45-.04-.69-.04h-.61c-.81-.04-1.54-.08-2.35-.08h-.45c-.93,0-1.95,0-2.92.04-.77.04-1.62.08-2.39.12-.73.04-1.42.12-2.15.2-13.54,1.18-21.36,5.92-25.74,11.96-.36.53-.73,1.05-1.05,1.62-.45.65-.85,1.38-1.22,2.15-.45.97-.85,1.99-1.22,3.04-.16.53-.32,1.09-.49,1.66-.08.24-.12.53-.2.81v.08c-.24,1.05-.45,2.15-.57,3.28-.2,1.42-.28,2.92-.28,4.5v28.17c0,.85.04,1.7.08,2.55.08.57.12,1.14.16,1.7v.04c.16,1.18.32,2.31.61,3.4.04.24.08.53.2.81.08.49.24.97.41,1.46.04.12.04.2.08.28.36,1.05.77,2.11,1.22,3.04.28.53.53,1.05.81,1.54.41.65.81,1.3,1.26,1.9.36.57.77,1.05,1.18,1.58,4.54,5.47,12.28,9.65,24.97,10.74.65.08,1.34.12,2.03.16l2.31.12c.85.04,1.74.04,2.63.04h.73c.73,0,1.46,0,2.15-.08h.81c10.74-.41,19.09-3,24.88-7.29.2-.12.41-.24.57-.41t.08-.08c.57-.69.77-1.7.28-2.59l-5.14-9.81Zm228.18-62.82c-4.99-2.47-13.17-3.97-23.39-3.97s-18.44,1.5-23.43,4.01c-11.23,5.51-14.06,15.97-14.06,25.21v53.92c0,1.22,1.01,2.27,2.27,2.27h11.92c1.26,0,2.27-1.05,2.27-2.27v-55.5c.08-.77-.2-11.31,21.03-11.31s20.95,10.54,21.03,11.31v55.5c0,.16,0,.28.04.45.08.32.2.61.41.85.36.57,1.05.97,1.82.97h11.92c1.05,0,1.99-.81,2.23-1.82l.04-.45v-53.92c0-9.24-2.88-19.7-14.1-25.25Zm-164.4,61.68c-.41-.77-1.18-1.22-1.99-1.22-.32,0-.65.08-.97.24-.04,0-.08,0-.12.04-.12.08-.24.12-.32.24-.08,0-.12.08-.2.12-.81.49-1.7,1.05-2.72,1.74-4.01,2.68-8.11,4.01-12.44,4.01-7.62,0-10.86-3.57-10.86-11.88v-41.1h30.12s0,0,0,0c1.26,0,2.27-1.05,2.27-2.27v-11.75c0-1.26-1.01-2.27-2.27-2.27h0s0,0,0,0h-30.11v-24.48c0-1.26-1.01-2.31-2.27-2.31h-11.92c-1.09,0-2.03.81-2.27,1.86v.12c-.04.08-.04.2-.04.32,0,.16,0,.28.04.45v81.42c0,18.4,9.08,28.13,26.26,28.13,6.4,0,12.44-1.3,18.08-3.85,2.59-1.14,4.78-2.35,6.52-3.61h.04c.2-.12.41-.24.57-.41t.08-.08l.04-.04c.53-.69.73-1.66.24-2.55l-5.76-10.9Zm77.77-61.68c-.28-.12-.57-.28-.85-.36-5.07-2.27-12.93-3.61-22.57-3.61s-17.51,1.38-22.53,3.61c-.28.12-.57.24-.85.41-11.23,5.51-14.1,15.97-14.1,25.21v28.69c0,9.2,2.88,19.66,14.1,25.21.28.12.57.24.85.37,5.03,2.23,12.89,3.61,22.53,3.61s17.51-1.34,22.57-3.61c.28-.12.57-.24.85-.41,11.23-5.51,14.1-15.97,14.1-25.17v-28.69c0-9.24-2.88-19.7-14.1-25.25Zm-2.39,55.48c-.04.77.2,11.31-21.03,11.31s-20.95-10.54-20.99-11.31v-31.82c.04-.77-.24-11.31,21.03-11.31s20.95,10.54,20.99,11.31v31.82Z" />
    <path class="cls-1"
        d="m227.02,372.87c0,7.21-4.43,10.98-10.74,10.98s-10.82-3.81-10.82-10.98v-18.12h2.83v17.79c0,5.9,3.48,8.65,8.03,8.65s7.83-2.75,7.83-8.65v-17.79h2.87v18.12Z" />
    <path class="cls-1"
        d="m233.95,362.95h2.46l.29,2.46h.25c1.02-1.56,2.66-2.87,5.45-2.87,3.44,0,5.04,2.17,5.66,3.73h.25c.9-1.76,2.75-3.73,6.23-3.73,3.73,0,6.6,2.25,6.6,6.97v13.93h-2.75v-13.36c0-3.57-2.09-5.12-4.43-5.12-2.95,0-5.04,2.34-5.04,5.78v12.71h-2.75v-13.03c0-3.69-2.09-5.41-4.51-5.41s-4.96,1.68-4.96,5.62v12.83h-2.75v-20.49Z" />
    <path class="cls-1"
        d="m285.79,381.15v2.09c-.57.21-1.19.41-2.17.41-1.89,0-3.52-.94-3.85-2.99-1.39,1.97-3.89,3.2-6.89,3.2-3.65,0-6.56-1.8-6.56-5.78s2.99-5.9,7.13-6.27l5.98-.57v-1.35c0-2.99-1.56-5-4.75-5s-4.34,1.84-4.79,4.3h-2.75c.41-3.81,3.07-6.64,7.54-6.64s7.5,2.66,7.5,7.25v9.43c0,1.76.78,2.29,2.05,2.29.53,0,1.07-.16,1.56-.37Zm-6.35-7.79l-5.25.49c-2.99.29-5.12,1.64-5.12,4.18s1.93,3.52,4.1,3.52c2.95,0,6.27-1.6,6.27-5.94v-2.25Z" />
    <path class="cls-1"
        d="m317.43,373.77h-15.53c.16,4.63,2.79,7.75,6.89,7.75,2.87,0,5.08-1.27,5.86-3.77h2.66c-.9,3.98-4.26,6.11-8.52,6.11-5.62,0-9.59-4.14-9.59-10.45,0-6.64,4.02-10.86,9.47-10.86,4.92,0,8.85,3.48,8.85,10.12,0,.33,0,.66-.08,1.11Zm-15.49-2.13h12.87c-.04-4.06-2.54-6.76-6.15-6.76s-6.39,2.95-6.72,6.76Z" />
    <path class="cls-1"
        d="m322.84,362.95h2.46l.29,2.46h.25c1.02-1.56,2.66-2.87,5.45-2.87,3.44,0,5.04,2.17,5.66,3.73h.25c.9-1.76,2.75-3.73,6.23-3.73,3.73,0,6.6,2.25,6.6,6.97v13.93h-2.75v-13.36c0-3.57-2.09-5.12-4.43-5.12-2.95,0-5.04,2.34-5.04,5.78v12.71h-2.75v-13.03c0-3.69-2.09-5.41-4.51-5.41s-4.96,1.68-4.96,5.62v12.83h-2.75v-20.49Z" />
    <path class="cls-1"
        d="m375.01,373.24c0,6.48-3.89,10.62-9.3,10.62-3.77,0-5.9-2.01-6.84-3.57v11.35h-2.75v-28.69h2.3l.25,3.16h.25c.98-1.48,3.03-3.57,6.8-3.57,5.49,0,9.3,4.3,9.3,10.7Zm-2.7,0c0-4.96-2.83-8.24-6.84-8.24s-6.6,3.28-6.6,8.24,2.58,8.16,6.6,8.16,6.84-3.28,6.84-8.16Z" />
    <path class="cls-1"
        d="m380.21,362.95h2.42l.33,2.79h.25c.94-1.72,2.42-3.2,5.7-3.2h1.07v2.79c-.57-.08-1.02-.08-1.68-.08-3.03,0-5.33,2.5-5.33,6.84v11.35h-2.75v-20.49Z" />
    <path class="cls-1"
        d="m410.3,373.77h-15.53c.16,4.63,2.79,7.75,6.89,7.75,2.87,0,5.08-1.27,5.86-3.77h2.66c-.9,3.98-4.26,6.11-8.52,6.11-5.62,0-9.59-4.14-9.59-10.45,0-6.64,4.02-10.86,9.47-10.86,4.92,0,8.85,3.48,8.85,10.12,0,.33,0,.66-.08,1.11Zm-15.49-2.13h12.87c-.04-4.06-2.54-6.76-6.15-6.76s-6.39,2.95-6.72,6.76Z" />
    <path class="cls-1"
        d="m414.64,377.42h2.66c.29,3.16,2.3,4.18,4.84,4.18,2.29,0,4.26-.94,4.26-3.28,0-2.62-2.54-3.57-4.47-4.18l-1.23-.37c-2.25-.74-5.41-1.84-5.41-5.57,0-3.53,3.03-5.66,6.6-5.66,4.59,0,6.68,2.95,6.8,5.66h-2.66c-.21-1.97-1.76-3.4-4.14-3.4-2.09,0-3.93,1.07-3.93,3.28s2.05,2.95,4.06,3.61l1.11.37c2.66.82,5.94,2.21,5.94,6.19s-3.2,5.62-6.93,5.62c-5,0-7.38-2.79-7.5-6.43Z" />
    <path class="cls-1"
        d="m452.83,381.15v2.09c-.57.21-1.19.41-2.17.41-1.89,0-3.52-.94-3.85-2.99-1.39,1.97-3.89,3.2-6.89,3.2-3.65,0-6.56-1.8-6.56-5.78s2.99-5.9,7.13-6.27l5.98-.57v-1.35c0-2.99-1.56-5-4.75-5s-4.34,1.84-4.79,4.3h-2.75c.41-3.81,3.07-6.64,7.54-6.64s7.5,2.66,7.5,7.25v9.43c0,1.76.78,2.29,2.05,2.29.53,0,1.07-.16,1.56-.37Zm-6.35-7.79l-5.25.49c-2.99.29-5.12,1.64-5.12,4.18s1.93,3.52,4.1,3.52c2.95,0,6.27-1.6,6.27-5.94v-2.25Z" />
    <path class="cls-1"
        d="m486.19,375.66c0,4.92-3.16,7.79-8.44,7.79h-9.96v-28.69h9.8c5.29,0,7.91,2.83,7.91,7.13,0,3.77-1.97,5.53-4.1,6.48v.16c2.46.94,4.8,2.91,4.8,7.13Zm-15.62-8.2h6.76c3.44,0,5.33-2.09,5.33-5.29s-2.09-4.96-5.21-4.96h-6.89v10.25Zm12.75,8.12c0-3.36-2.29-5.7-5.82-5.7h-6.93v11.11h6.97c3.52,0,5.78-2.05,5.78-5.41Z" />
    <path class="cls-1" d="m509.1,357.38h-8.4v26.07h-2.83v-26.07h-8.44v-2.62h19.67v2.62Z" />
    <path class="cls-1"
        d="m536.73,368.86v14.59h-2.25l-.37-3.57h-.25c-1.23,1.35-4.1,3.98-9.26,3.98-7.99,0-12.91-5.98-12.91-14.34s5.45-15.17,13.69-15.17c6.11,0,10.25,3.44,11.23,8.24h-2.99c-.98-3.24-3.85-5.57-8.24-5.57-6.52,0-10.82,5.25-10.82,12.46,0,6.72,3.81,11.76,10.25,11.76,4.63,0,9.14-2.42,9.14-7.66v-2.34h-8.98v-2.38h11.76Z" />
    <path class="cls-1"
        d="m574.39,363.12c0,5.25-3.48,8.48-9.02,8.48h-6.97v11.84h-2.75v-28.69h10.04c5.25,0,8.69,3.32,8.69,8.36Zm-2.87.04c0-3.81-2.58-5.82-6.02-5.82h-7.09v11.68h6.76c3.98,0,6.35-2.17,6.35-5.86Z" />
    <path class="cls-1"
        d="m596.4,381.27v2.17h-1.35c-1.93,0-3.03-.74-3.36-2.71-1.43,1.89-3.85,3.12-6.8,3.12-3.65,0-6.56-1.8-6.56-5.78s2.99-5.9,7.13-6.27l5.98-.57v-1.35c0-2.99-1.56-5-4.75-5s-4.34,1.84-4.79,4.3h-2.75c.41-3.81,3.07-6.64,7.54-6.64s7.5,2.66,7.5,7.25v9.71c0,1.23.57,1.76,1.68,1.76h.53Zm-4.96-7.91l-5.25.49c-2.99.29-5.12,1.64-5.12,4.18s1.93,3.52,4.1,3.52c2.95,0,6.27-1.6,6.27-5.94v-2.25Z" />
    <path class="cls-1"
        d="m599.51,373.32c0-6.11,4.02-10.78,9.88-10.78,4.47,0,8.16,2.58,8.89,7.05h-2.75c-.57-2.46-2.79-4.59-6.15-4.59-4.26,0-7.17,3.65-7.17,8.32s2.66,8.07,7.17,8.07c3.36,0,5.41-1.76,6.23-4.39h2.79c-.86,4.14-4.26,6.84-9.02,6.84-6.15,0-9.88-4.63-9.88-10.53Z" />
    <path class="cls-1"
        d="m625.08,379.31v-14.1h-4.34v-2.25h1.39c2.38,0,3.2-.74,3.2-2.95v-2.62h2.5v5.57h4.96v2.25h-4.96v13.69c0,1.64.74,2.62,2.54,2.62.66,0,1.39-.12,2.01-.33v2.25c-.61.16-1.52.41-2.66.41-3.44,0-4.63-2.05-4.63-4.55Z" />
    <path class="cls-1"
        d="m652.95,383.45h-2.46l-.29-2.46h-.25c-1.02,1.43-2.62,2.87-5.9,2.87-4.1,0-7.21-2.58-7.21-7.75v-13.16h2.75v12.5c0,4.18,2.21,5.94,5,5.94,2.95,0,5.62-1.89,5.62-6.39v-12.05h2.75v20.49Z" />
    <path class="cls-1"
        d="m676.31,381.27v2.17h-1.35c-1.93,0-3.03-.74-3.36-2.71-1.43,1.89-3.85,3.12-6.8,3.12-3.65,0-6.56-1.8-6.56-5.78s2.99-5.9,7.13-6.27l5.98-.57v-1.35c0-2.99-1.56-5-4.75-5s-4.34,1.84-4.79,4.3h-2.75c.41-3.81,3.07-6.64,7.54-6.64s7.5,2.66,7.5,7.25v9.71c0,1.23.57,1.76,1.68,1.76h.53Zm-4.96-7.91l-5.25.49c-2.99.29-5.12,1.64-5.12,4.18s1.93,3.52,4.1,3.52c2.95,0,6.27-1.6,6.27-5.94v-2.25Z" />
    <path class="cls-1" d="m680.65,354.35h2.75v29.1h-2.75v-29.1Z" />
</svg>