<?xml version="1.0" encoding="UTF-8"?>
<svg id="Camada_1" data-name="Camada 1" xmlns="http://www.w3.org/2000/svg" viewBox="0 0 1125.65 375.73">
  <defs>
    <style>
      .cls-1 {
        fill: #debb74;
      }

      .cls-2 {
        fill: #fcfcfc;
      }
    </style>
  </defs>
  <g>
    <path class="cls-1" d="M222.57,107.37l-15.46-47.85c24.62,3.63,47,14.21,65.08,29.67l22.75-8.34c-23.39-23.46-54.5-39.26-89.18-43.34-3.68-.43-6.74-3.04-7.88-6.57L187.87,0v187.87l45.88-45.88-11.19-34.62h.01Z"/>
    <path class="cls-1" d="M187.87,187.87l45.88,45.88,34.66-11.19,1.83-.58,45.99-14.89c-.51,3.49-1.15,6.92-1.97,10.31-4.75,20.55-14.41,39.2-27.67,54.73l8.34,22.76c21.33-21.3,36.32-48.94,41.92-79.83.54-3.05,1-6.15,1.37-9.28.44-3.69,3.03-6.77,6.57-7.91l30.99-10.01h-187.91,0Z"/>
    <path class="cls-1" d="M107.33,153.18l-18.14-49.48-.03-.1c-14.3,16.75-24.44,37.17-28.73,59.67-.65,3.38-3.17,6.1-6.45,7.16l-17.04,5.5L0,187.87h187.87l-45.88-45.88-34.66,11.19h0Z"/>
    <path class="cls-1" d="M153.18,268.38l-49.55,18.14-.07.03c16.75,14.33,37.2,24.47,59.7,28.76,3.38.65,6.1,3.17,7.16,6.45l5.5,17.04,11.94,36.93v-187.87l-45.88,45.88,11.19,34.62v.02Z"/>
    <path class="cls-1" d="M233.76,233.76l-11.19,34.62,49.61,18.18c-18.08,15.46-40.46,26.04-65.08,29.67l-7.29,22.59c37.07-2.88,70.4-19.13,95.12-43.92l-15.29-15.26-45.88-45.88h0Z"/>
    <path class="cls-1" d="M233.76,141.99l34.66,11.19,18.18-49.58c15.43,18.08,26.01,40.42,29.64,65.04l22.59,7.29c-2.88-37.03-19.09-70.33-43.88-95.09l-15.29,15.26-45.88,45.88h-.02Z"/>
    <path class="cls-1" d="M168.65,59.52l7.29-22.59,3.66-11.36-22.68,33.79c-1.27,1.9-3.19,3.24-5.38,3.88-16.19,4.71-31.08,12.49-43.98,22.67-2.58,2.04-6.06,2.52-9.14,1.39l-17.6-6.45,15.33,15.33,45.85,45.82,11.19-34.62,15.46-47.85h0Z"/>
    <path class="cls-1" d="M59.52,207.1l-22.59-7.29-11.36-3.66,33.79,22.68c1.9,1.27,3.24,3.19,3.88,5.38,4.71,16.19,12.48,31.05,22.64,43.94,2.03,2.58,2.52,6.05,1.39,9.14l-6.46,17.61,15.29-15.26v-.03l.03-.03,45.85-45.82-34.66-11.19-47.82-15.46h.02Z"/>
  </g>
  <g>
    <g>
      <rect class="cls-2" x="452.25" y="269.21" width="7.33" height="51.95"/>
      <polygon class="cls-2" points="513.2 310.67 510.15 305.34 486.63 269.21 486.25 269.21 480.36 269.21 478.99 269.21 478.99 321.15 486.32 321.15 486.26 279.7 489.38 285.25 512.83 321.15 513.21 321.15 519.17 321.15 520.47 321.15 520.47 269.21 513.14 269.21 513.2 310.67"/>
      <polygon class="cls-2" points="561.8 309.39 560.27 314.11 558.74 309.39 543.16 269.21 535.44 269.21 555.83 321.15 564.32 321.15 584.64 269.21 577.38 269.21 561.8 309.39"/>
      <polygon class="cls-2" points="604.88 269.21 599.61 269.21 599.61 321.15 604.88 321.15 606.94 321.15 634.98 321.15 634.98 315.19 606.94 315.19 606.94 297.24 632.08 297.24 632.08 291.28 606.94 291.28 606.94 275.16 634.98 275.16 634.98 269.21 606.94 269.21 604.88 269.21"/>
      <path class="cls-2" d="M684.25,295.64c-1.53-1.07-3.22-1.91-5.08-2.52-1.86-.61-3.8-1.11-5.81-1.49s-3.96-.78-5.84-1.18c-1.89-.41-3.59-.93-5.12-1.57-1.53-.64-2.74-1.5-3.63-2.6-.8-.99-1.24-2.28-1.32-3.86-.09-1.79.43-3.65,1.65-4.97,1.83-1.98,4.69-2.97,8.58-2.97,3.26,0,5.95.78,8.06,2.33s3.58,4.04,4.39,7.45h7.71c-.61-3.77-1.86-6.81-3.74-9.13-1.89-2.32-4.23-4.04-7.03-5.16-2.8-1.12-5.88-1.68-9.24-1.68-3.87,0-7.13.65-9.78,1.95-2.65,1.3-4.66,3.03-6.04,5.19-1.38,2.17-2.06,4.49-2.06,6.99,0,2.65.45,4.81,1.34,6.49s2.1,3.03,3.63,4.05,3.24,1.82,5.12,2.4c1.89.59,3.82,1.08,5.81,1.49s3.92.83,5.81,1.26c1.88.43,3.59.99,5.12,1.68,1.53.69,2.73,1.63,3.63,2.83.89,1.2,1.34,2.79,1.34,4.77,0,2.55-.99,4.6-2.98,6.15-1.98,1.55-4.89,2.33-8.71,2.33s-6.65-.81-8.94-2.44-3.85-3.97-4.66-7.03h-7.71c.77,3.46,2.11,6.37,4.05,8.71s4.34,4.09,7.22,5.23c2.88,1.14,6.2,1.72,9.97,1.72s7.03-.6,9.93-1.8c2.9-1.2,5.18-2.97,6.84-5.31,1.65-2.34,2.48-5.19,2.48-8.56,0-2.65-.45-4.84-1.34-6.57s-2.1-3.13-3.63-4.2l-.02.02Z"/>
      <polygon class="cls-2" points="717.1 269.21 699.45 269.21 699.45 275.39 717.1 275.39 717.1 321.15 724.43 321.15 724.43 275.39 742.15 275.39 742.15 269.21 724.43 269.21 717.1 269.21"/>
      <rect class="cls-2" x="758.04" y="269.21" width="7.33" height="51.95"/>
      <polygon class="cls-2" points="831.83 269.21 829.39 269.21 813.73 306.87 812.13 311.74 810.52 306.87 794.86 269.21 792.04 269.21 788.91 269.21 784.78 269.21 784.78 321.15 792.11 321.15 792.05 278.04 795.7 288.3 809.3 321.15 814.49 321.15 828.17 288.38 831.83 278.04 831.83 321.15 839.17 321.15 839.17 269.21 834.97 269.21 831.83 269.21"/>
      <polygon class="cls-2" points="863.84 269.21 858.57 269.21 858.57 321.15 863.84 321.15 865.9 321.15 893.94 321.15 893.94 315.19 865.9 315.19 865.9 297.24 891.04 297.24 891.04 291.28 865.9 291.28 865.9 275.16 893.94 275.16 893.94 269.21 865.9 269.21 863.84 269.21"/>
      <polygon class="cls-2" points="944.95 310.67 941.91 305.34 918.39 269.21 918 269.21 912.12 269.21 910.75 269.21 910.75 321.15 918.08 321.15 918.02 279.7 921.14 285.25 944.59 321.15 944.97 321.15 950.93 321.15 952.23 321.15 952.23 269.21 944.89 269.21 944.95 310.67"/>
      <polygon class="cls-2" points="985.76 269.21 968.12 269.21 968.12 275.39 985.76 275.39 985.76 321.15 993.09 321.15 993.09 275.39 1010.82 275.39 1010.82 269.21 993.09 269.21 985.76 269.21"/>
      <path class="cls-2" d="M1067.66,280.88c-2.01-4.02-4.83-7.11-8.5-9.31-3.67-2.16-8.03-3.28-13.13-3.28s-9.43,1.12-13.09,3.28c-3.71,2.2-6.53,5.29-8.54,9.31-1.97,4.06-2.97,8.85-2.97,14.37s1.01,10.28,2.97,14.29c2.01,4.02,4.83,7.11,8.54,9.27,3.67,2.16,8.07,3.24,13.09,3.24s9.46-1.08,13.13-3.24,6.49-5.25,8.5-9.27c1.97-4.02,2.97-8.77,2.97-14.29s-1-10.31-2.97-14.37ZM1061.14,306.22c-1.35,3.09-3.32,5.45-5.91,7.11-2.55,1.66-5.64,2.47-9.19,2.47s-6.61-.81-9.16-2.47-4.52-4.02-5.91-7.11c-1.35-3.09-2.05-6.72-2.05-10.97s.7-7.96,2.05-11.09c1.39-3.09,3.36-5.49,5.91-7.11,2.55-1.66,5.6-2.51,9.16-2.51s6.64.85,9.19,2.51c2.59,1.62,4.56,4.02,5.91,7.11,1.31,3.13,2.01,6.84,2.01,11.09s-.7,7.88-2.01,10.97Z"/>
      <path class="cls-2" d="M1124.29,299.84c-.89-1.73-2.1-3.13-3.63-4.2s-3.22-1.91-5.08-2.52-3.8-1.11-5.81-1.49-3.96-.78-5.84-1.18c-1.89-.41-3.59-.93-5.12-1.57s-2.74-1.5-3.63-2.6c-.8-.99-1.24-2.28-1.32-3.86-.09-1.79.43-3.65,1.65-4.97,1.83-1.98,4.69-2.97,8.58-2.97,3.26,0,5.95.78,8.06,2.33,2.11,1.55,3.58,4.04,4.39,7.45h7.71c-.61-3.77-1.86-6.81-3.74-9.13-1.89-2.32-4.23-4.04-7.03-5.16s-5.88-1.68-9.24-1.68c-3.87,0-7.13.65-9.78,1.95-2.65,1.3-4.66,3.03-6.04,5.19-1.38,2.17-2.06,4.49-2.06,6.99,0,2.65.45,4.81,1.34,6.49s2.1,3.03,3.63,4.05,3.24,1.82,5.12,2.4c1.89.59,3.82,1.08,5.81,1.49,1.99.41,3.92.83,5.81,1.26,1.88.43,3.59.99,5.12,1.68s2.73,1.63,3.63,2.83c.89,1.2,1.34,2.79,1.34,4.77,0,2.55-.99,4.6-2.98,6.15-1.98,1.55-4.89,2.33-8.71,2.33s-6.65-.81-8.94-2.44c-2.29-1.63-3.85-3.97-4.66-7.03h-7.71c.77,3.46,2.11,6.37,4.05,8.71,1.94,2.34,4.34,4.09,7.22,5.23s6.2,1.72,9.97,1.72,7.03-.6,9.93-1.8c2.9-1.2,5.18-2.97,6.84-5.31,1.65-2.34,2.48-5.19,2.48-8.56,0-2.65-.45-4.84-1.34-6.57l-.02.02Z"/>
    </g>
    <g>
      <path class="cls-2" d="M582.94,167.33c-12.9,24.72-38.75,41.6-68.61,41.6-13.37,0-25.92-3.4-36.89-9.35-1.08-.58-2.16-1.2-3.24-1.85-1.04-.66-2.09-1.31-3.13-2.01-1-.7-2.05-1.43-3.01-2.16-18.89-14.1-31.1-36.62-31.1-62s12.21-47.9,31.1-62c.97-.73,2.01-1.47,3.01-2.16,1.04-.7,2.09-1.35,3.13-2.01,1.08-.66,2.16-1.27,3.24-1.85,10.97-5.95,23.53-9.35,36.89-9.35,14.51,0,28.05,4,39.66,11-.14-.08-.27-.18-.41-.26.7.42,1.43.85,2.12,1.27,2.07,1.31,4.04,2.74,5.97,4.23.04.03.09.06.13.09-.03-.03-.07-.05-.1-.07,8.73,6.76,16,15.32,21.15,25.18l-34.23,11.09c-7.69-10.58-20.17-17.5-34.3-17.5-23.33,0-42.26,18.93-42.3,42.26v.08c0,23.37,18.93,42.34,42.3,42.34,14.18,0,26.69-6.95,34.38-17.61l34.23,11.05h0Z"/>
      <path class="cls-2" d="M677.53,57.19h-41.95l-41.45,113.72h-.04l-12.71,34.92h37.36l10.89-33.68,52.03-.15,10.93,33.83h39.41l-54.47-148.65h0ZM638.25,145.46l17.41-53.89,17.39,53.81-34.8.07h0Z"/>
      <path class="cls-2" d="M746.83,57.19v148.61h35V57.19h-35Z"/>
      <path class="cls-2" d="M923.1,141.99c-2.4-5.1-5.72-9.23-9.93-12.44-4.25-3.21-8.92-5.76-14.1-7.65s-10.55-3.44-16.07-4.6c-5.52-1.16-10.89-2.24-16.07-3.17-5.18-.97-9.81-2.16-13.98-3.63-4.13-1.43-7.46-3.32-9.93-5.68-2.51-2.32-3.71-5.45-3.71-9.39,0-4.37,1.78-7.88,5.33-10.47,3.59-2.63,8.42-3.94,14.52-3.94,7.15,0,12.9,1.74,17.27,5.22,4.4,3.52,7.3,8.96,8.77,16.42h37.35c-1.43-11.51-5.14-20.86-11.01-27.97-5.91-7.15-13.33-12.44-22.21-15.88-8.88-3.4-18.5-5.14-28.86-5.14-12.09,0-22.41,2.01-30.9,6.03-8.54,4.02-15.07,9.43-19.59,16.26-4.52,6.88-6.76,14.45-6.76,22.75,0,7.42,1.24,13.6,3.71,18.46,2.47,4.91,5.83,8.88,10.04,12.01,4.25,3.13,8.92,5.68,14.1,7.53,5.18,1.93,10.55,3.52,16.07,4.83,5.56,1.31,10.89,2.51,16.07,3.59,5.18,1.12,9.85,2.43,13.98,3.94,4.17,1.55,7.46,3.63,9.97,6.22,2.47,2.63,3.71,5.99,3.71,10.08,0,5.1-2.01,9.12-6.03,12.13-4.02,2.97-10.01,4.48-18.04,4.48s-14.25-1.97-19.24-5.91c-4.94-3.94-8.15-9.54-9.58-16.84h-36.97c1.78,11.24,5.6,20.55,11.47,28.01,5.91,7.42,13.48,12.94,22.75,16.61,9.23,3.63,19.7,5.45,31.37,5.45s21.98-1.89,31.02-5.68c9.04-3.79,16.15-9.31,21.32-16.49,5.18-7.22,7.76-15.92,7.76-26.11,0-7.61-1.2-13.95-3.63-19.04h.03Z"/>
    </g>
  </g>
</svg>